<svg width="21" height="21" viewBox="0 0 21 21" fill="none" xmlns="http://www.w3.org/2000/svg">
<path d="M20.3063 20.3041C19.9578 20.6533 19.558 20.8724 19.107 20.9614C18.656 21.0504 18.1742 20.9854 17.6617 20.7663C17.1491 20.5472 16.6537 20.1775 16.1753 19.6571L10.23 12.6734C9.35532 13.0842 8.42252 13.204 7.43164 13.0329C6.44075 12.8617 5.58312 12.4132 4.85875 11.6875L0.328017 7.1275C0.109339 6.9221 0 6.66534 0 6.35724C0 6.04913 0.109339 5.78553 0.328017 5.56644C0.546695 5.34734 0.809792 5.23779 1.11731 5.23779C1.42482 5.23779 1.68109 5.34734 1.8861 5.56644L6.68335 10.3729C7.20271 10.2496 7.70157 10.0442 8.17993 9.75667L2.95215 4.51888C2.73348 4.29978 2.62414 4.03618 2.62414 3.72807C2.62414 3.41997 2.73348 3.15637 2.95215 2.93727C3.17083 2.71817 3.43051 2.60862 3.73119 2.60862C4.03188 2.60862 4.29156 2.71817 4.51023 2.93727L9.75851 8.17506C10.0455 7.70948 10.2505 7.21651 10.3735 6.69615L5.57629 1.88971C5.35761 1.67062 5.24827 1.40701 5.24827 1.09891C5.24827 0.790804 5.3542 0.530626 5.56604 0.318375C5.77788 0.106125 6.03756 0 6.34508 0C6.6526 0 6.91569 0.109549 7.13437 0.328646L11.7061 4.84752C12.4168 5.57328 12.8576 6.43598 13.0284 7.43561C13.1993 8.43524 13.0797 9.37325 12.6697 10.2496L19.64 16.1653C20.1594 16.6308 20.5318 17.1238 20.7573 17.6442C20.9828 18.1645 21.0512 18.6506 20.9623 19.1025C20.8735 19.5544 20.6548 19.955 20.3063 20.3041Z" fill="#2E2E2E"/>
</svg>
