<svg width="22" height="21" viewBox="0 0 22 21" fill="none" xmlns="http://www.w3.org/2000/svg">
<path d="M11 9.52309C9.70305 9.52309 8.59309 9.05646 7.67014 8.1232C6.74719 7.18993 6.28571 6.06938 6.28571 4.76155C6.28571 3.45159 6.74719 2.32998 7.67014 1.39672C8.59309 0.465573 9.70305 0 11 0C12.297 0 13.4069 0.465573 14.3299 1.39672C15.2528 2.32998 15.7143 3.45159 15.7143 4.76155C15.7143 6.07044 15.2528 7.19099 14.3299 8.1232C13.4069 9.0554 12.297 9.52203 11 9.52309ZM0 20.9984V18.3875C0 17.7325 0.188572 17.1199 0.565714 16.5495C0.943905 15.9782 1.452 15.5348 2.09 15.2195C3.57343 14.501 5.05738 13.9624 6.54186 13.6037C8.02738 13.244 9.51343 13.0641 11 13.0641C12.4876 13.0641 13.9737 13.244 15.4581 13.6037C16.9426 13.9635 18.426 14.5021 19.9084 15.2195C20.5475 15.5348 21.0556 15.9782 21.4327 16.5495C21.8109 17.1199 22 17.7325 22 18.3875V21L0 20.9984Z" fill="#2E2E2E"/>
</svg>
