<svg width="21" height="21" viewBox="0 0 21 21" fill="none" xmlns="http://www.w3.org/2000/svg">
<path d="M10.5 19.0909C11.6282 19.0909 12.7453 18.8687 13.7876 18.437C14.8299 18.0052 15.7769 17.3724 16.5747 16.5747C17.3724 15.7769 18.0052 14.8299 18.437 13.7876C18.8687 12.7453 19.0909 11.6282 19.0909 10.5C19.0909 9.37183 18.8687 8.2547 18.437 7.2124C18.0052 6.1701 17.3724 5.22305 16.5747 4.42531C15.7769 3.62757 14.8299 2.99477 13.7876 2.56303C12.7453 2.1313 11.6282 1.90909 10.5 1.90909C8.22155 1.90909 6.03642 2.8142 4.42531 4.42531C2.8142 6.03642 1.90909 8.22155 1.90909 10.5C1.90909 12.7785 2.8142 14.9636 4.42531 16.5747C6.03642 18.1858 8.22155 19.0909 10.5 19.0909ZM21 10.5C21 16.2989 16.2989 21 10.5 21C4.70114 21 0 16.2989 0 10.5C0 4.70114 4.70114 0 10.5 0C16.2989 0 21 4.70114 21 10.5ZM13.3636 14.7134L9.54545 10.8952V4.29545H11.4545V10.1048L14.7134 13.3636L13.3636 14.7134Z" fill="#2E2E2E"/>
</svg>
