<svg width="1440" height="3848" viewBox="0 0 1440 3848" fill="none" xmlns="http://www.w3.org/2000/svg">
<g clip-path="url(#clip0_301_248)">
<rect width="1440" height="3848" fill="#FFFCF4"/>
<g opacity="0.5" clip-path="url(#clip1_301_248)">
<path d="M1220.25 925.755L1190 914.599H1168.36L1146.94 938.958L1143 977.515L1163.51 1012.55L1185.58 1036.45L1220.25 1046H1238.44L1261.31 1033.26L1290.38 999.023L1306 955.606L1290.38 920.187L1262.09 907.864L1237.64 913.815L1220.25 925.755Z" fill="#6AB25F"/>
<path d="M1221.08 936.872L1228.03 881.132L1215.87 869V928.395L1221.08 936.872Z" fill="#007071"/>
<path d="M1224.57 935.016L1236.15 896.669L1283.03 870.856L1272.38 900.975L1264.91 908.15L1236.15 921.775L1224.57 935.016Z" fill="#007071"/>
</g>
<g opacity="0.5" clip-path="url(#clip2_301_248)">
<path d="M119.365 717.796L183.992 741.116L204.584 731.892L225.693 737.548L230.977 768.518L184.632 885.187L133.018 931.354L66.8898 913.635L26.7588 868.39L56.9797 731.061L90.9234 683.214L112.032 688.87L119.365 717.796Z" fill="#F6CD00"/>
<path d="M119.365 717.796L147.214 698.297L154.967 669.364L185.913 677.656L190.832 709.985L183.992 741.116L119.365 717.796Z" fill="#749D2C"/>
</g>
<g opacity="0.5" clip-path="url(#clip3_301_248)">
<path d="M172.148 1425.66L146.325 1445.49L123.111 1450.87L85.6133 1442.66L61.8471 1427.69L51.7452 1397.1L56.9133 1371.76L61.1781 1345.52L91.7514 1306.96L119.916 1290L138.966 1323.39L131.222 1345.41L111.42 1369.35L103.191 1392.73L116.17 1400.32L140.053 1391.78L158.233 1379.33L187 1410.13L172.148 1425.66Z" fill="#F7A418"/>
<path d="M119.916 1290L86.968 1340.63L71.2298 1387.55L86.7338 1427.6L98.9263 1438.69L123.111 1450.87L99.2775 1460L61.2282 1452L39.7868 1417.25L34 1355.77L53.5515 1327.29L83.807 1298.72L119.916 1290Z" fill="#BCA584"/>
</g>
<g opacity="0.5">
<g clip-path="url(#clip4_301_248)">
<path d="M1293.57 1784.37L1305.08 1801.66L1320.56 1820.26L1332.51 1826.42L1348.71 1807.43L1321.15 1784.37L1312.02 1765.12L1293.57 1784.37Z" fill="#B07463"/>
<path d="M1274.1 1729.54L1243.33 1745.58L1235 1768.02V1798.79L1254.56 1812.24H1276.66L1296.87 1807.12L1304.19 1794.93L1321.15 1781.47L1340.95 1770.89L1353.31 1759.66V1750.05L1349.3 1732.75L1336.14 1722.49L1305.67 1718L1274.1 1729.54Z" fill="#C8998C"/>
<path d="M1315.79 1747.64V1757.31L1319.42 1759.24L1328.78 1758.62L1332.8 1747.97L1328.61 1740.07L1321.71 1740.38L1315.79 1747.64Z" fill="#714848"/>
<path d="M1260.28 1765.88L1269.59 1763.23L1270.45 1759.2L1267.27 1750.38L1255.93 1749.42L1249.48 1755.64L1251.68 1762.19L1260.28 1765.88Z" fill="#714848"/>
<path d="M1290.06 1789.27L1281.84 1794.37L1282.12 1798.47L1287.6 1806.08L1298.75 1803.89L1303.26 1796.17L1299.34 1790.45L1290.06 1789.27Z" fill="#714848"/>
</g>
</g>
<g opacity="0.5" clip-path="url(#clip5_301_248)">
<path d="M1219.99 2558.05L1211.47 2549.86V2534.89L1219.99 2525.88L1215.72 2514.25L1219.99 2498.23L1229.09 2483.74L1231.88 2460.2L1241.55 2443.96L1266.4 2405.51L1284.94 2386.91L1297.37 2368.02L1325.1 2356.52L1337.53 2352L1349 2373.91V2399.9V2428L1337.53 2462.88L1323.2 2507.85L1308.84 2525.88L1302.15 2558.05H1289.73L1273.88 2567.16H1262.02L1239.23 2571.01H1223.89L1219.99 2558.05Z" fill="#F6CD00"/>
<path d="M1176 2468.61L1195.11 2516.77V2534.89V2558.05L1201.9 2571.01L1207.54 2582.54V2603.66L1201.9 2616.15L1214.35 2620L1226.78 2599.81L1241.55 2598.85L1266.4 2578.69L1302.15 2558.05L1308.84 2525.88L1295.46 2534.89L1284.94 2544.29L1262.02 2567.16L1239.23 2571.01L1242.44 2534.89L1231.88 2521.39L1215.72 2514.25L1176 2468.61Z" fill="#006B35"/>
</g>
<g opacity="0.5" clip-path="url(#clip6_301_248)">
<path d="M244.494 2044.5L262.584 2109.11L268.544 2126.06L282 2183.12L244.448 2164.1L228.407 2148.34L206.849 2109.41L199.329 2087.99L201.518 2066.15L207.571 2042.24L223.844 2023.08L240.025 2013L244.494 2044.5Z" fill="#006B35"/>
<path d="M208.386 2068.69C207.082 2064.09 207.082 2059.21 208.386 2054.61C210.109 2049.53 212.739 2048.65 218.164 2046.74C220.575 2045.71 223.124 2045.03 225.73 2044.73C228.069 2044.51 230.429 2044.68 232.714 2045.22C237.37 2047.09 239.326 2053.3 241.119 2058.4C242.321 2061.48 242.682 2064.82 242.166 2068.09C241.608 2071.02 239.838 2072.53 237.231 2074.88C235.597 2076.84 233.606 2078.47 231.364 2079.68C228.926 2080.56 226.339 2080.95 223.751 2080.82C222.592 2080.77 221.439 2080.63 220.306 2080.38C217.023 2079.68 215.649 2077.61 213.624 2076.4C211.058 2074.49 209.212 2071.78 208.386 2068.69Z" fill="#749D2C"/>
<path d="M224.822 2086.83C229.517 2085.49 234.492 2085.49 239.186 2086.83C244.331 2088.55 245.239 2091.25 247.195 2096.77C248.234 2099.24 248.916 2101.84 249.22 2104.5C249.442 2106.84 249.277 2109.2 248.732 2111.48C246.846 2116.14 240.49 2118.24 235.322 2120.05C232.178 2121.28 228.762 2121.65 225.427 2121.12C222.424 2120.56 220.911 2118.8 218.443 2116.09C216.437 2114.43 214.769 2112.4 213.531 2110.11C212.659 2107.62 212.264 2104.99 212.367 2102.36C212.434 2101.18 212.59 2100 212.832 2098.84C213.554 2095.49 215.649 2094.19 216.907 2092.04C218.876 2089.46 221.668 2087.62 224.822 2086.83Z" fill="#749D2C"/>
<path d="M233.995 2131.51C235.931 2127.83 238.858 2124.76 242.446 2122.66C246.566 2120.5 248.755 2121.52 253.318 2123.57C255.456 2124.36 257.465 2125.47 259.278 2126.85C260.872 2128.1 262.249 2129.6 263.352 2131.3C265.145 2135.23 262.654 2140.35 260.721 2144.62C259.645 2147.28 257.877 2149.6 255.599 2151.34C253.481 2152.88 251.455 2152.74 248.406 2152.67C246.198 2152.93 243.962 2152.76 241.817 2152.18C239.762 2151.27 237.904 2149.96 236.346 2148.34C235.657 2147.62 235.027 2146.84 234.46 2146.01C232.807 2143.68 233.203 2141.5 232.644 2139.49C232.174 2136.76 232.65 2133.94 233.995 2131.51Z" fill="#749D2C"/>
<path d="M176.165 2057.38L194.278 2121.99L200.214 2138.96L213.694 2196L176.118 2177L160.078 2161.24L138.52 2122.29L131 2100.89L133.188 2079.05L139.241 2055.14L155.515 2035.96L171.695 2025.9L176.165 2057.38Z" fill="#006B35"/>
<path d="M140.056 2081.57C138.74 2076.96 138.74 2072.08 140.056 2067.48C141.802 2062.43 144.433 2061.54 149.857 2059.56C152.276 2058.53 154.833 2057.86 157.447 2057.56C159.785 2057.33 162.145 2057.49 164.431 2058.03C169.088 2059.89 171.043 2066.13 172.836 2071.21C174.048 2074.28 174.41 2077.63 173.883 2080.89C173.325 2083.85 171.555 2085.34 168.971 2087.71C167.329 2089.67 165.33 2091.3 163.081 2092.51C160.641 2093.38 158.056 2093.76 155.468 2093.65C154.287 2093.62 153.111 2093.49 151.953 2093.25C148.67 2092.56 147.297 2090.51 145.294 2089.27C142.718 2087.38 140.869 2084.66 140.056 2081.57Z" fill="#749D2C"/>
<path d="M156.609 2099.73C161.303 2098.39 166.279 2098.39 170.973 2099.73C176.142 2101.47 177.026 2104.15 178.982 2109.69C180.027 2112.16 180.709 2114.76 181.007 2117.42C181.237 2119.76 181.079 2122.12 180.542 2124.41C178.633 2129.06 172.277 2131.14 167.109 2132.95C163.974 2134.19 160.567 2134.57 157.238 2134.05C154.234 2133.46 152.581 2131.72 150.253 2129.02C148.253 2127.35 146.586 2125.32 145.341 2123.03C144.462 2120.6 144.052 2118.03 144.13 2115.44C144.179 2114.27 144.327 2113.1 144.573 2111.95C145.294 2108.6 147.39 2107.29 148.647 2105.15C150.597 2102.48 153.41 2100.56 156.609 2099.73Z" fill="#749D2C"/>
<path d="M165.665 2144.41C167.616 2140.72 170.549 2137.65 174.14 2135.54C178.237 2133.39 180.425 2134.39 184.988 2136.47C187.127 2137.26 189.135 2138.37 190.948 2139.75C192.542 2140.99 193.918 2142.48 195.023 2144.17C196.815 2148.13 194.324 2153.23 192.415 2157.51C191.337 2160.21 189.561 2162.56 187.27 2164.34C185.151 2165.85 183.126 2165.73 180.076 2165.66C177.877 2165.92 175.648 2165.75 173.511 2165.17C171.451 2164.25 169.587 2162.93 168.017 2161.31C167.317 2160.59 166.686 2159.81 166.131 2158.98C164.478 2156.65 164.874 2154.49 164.315 2152.49C163.832 2149.72 164.309 2146.87 165.665 2144.41Z" fill="#749D2C"/>
</g>
<g opacity="0.5" clip-path="url(#clip7_301_248)">
<path d="M-113.884 3005.52L135.581 2937.32L194.297 2919L206 2988.88L179.493 3067.1L121.111 3108.72L64.5293 3133.66L3.98003 3141.97H-53.1684L-102.781 3118.7L-161.264 3073.76L-173 3037.16L-113.884 3005.52Z" fill="#6AB25F"/>
<path d="M179.493 2923.62L172.724 3030.5L148.851 3063.78L84.968 3090.4L28.6198 3112.03L-29.3622 3122.01L-87.3775 3107.04L-136.057 3078.75L-153.895 3030.5L-113.884 3005.52L179.493 2923.62Z" fill="#E34B37"/>
</g>
<g opacity="0.5" clip-path="url(#clip8_301_248)">
<path d="M1221.52 3446.73L1170.27 3465.05L1149 3499.38L1150.79 3551.58L1179 3585.49L1205.09 3602.1L1239.63 3624.11L1255.2 3634L1271.9 3630.31L1294.31 3620.87L1309.46 3596.46L1319.53 3537.69L1324 3493.15L1311.56 3451.15L1279.05 3430.47L1246.74 3432.14L1221.52 3446.73Z" fill="#E34B37"/>
<path d="M1211.62 3480.33L1157.59 3444.5L1186.5 3452.97L1184.6 3383.22L1193.95 3350L1199.83 3394.81L1211.62 3444.5L1231.55 3415.92L1250.28 3415.15L1235.95 3444.5L1228.22 3474.76L1211.62 3480.33Z" fill="#006B35"/>
<path d="M1276.68 3471.91L1286.68 3491.69L1291.97 3488.94L1288.88 3465.61L1276.68 3471.91Z" fill="#3D3D3D"/>
<path d="M1252.55 3489.14L1262.52 3508.92L1267.84 3506.17L1264.75 3482.84L1252.55 3489.14Z" fill="#3D3D3D"/>
<path d="M1276.68 3520.07L1286.68 3539.84L1291.97 3537.09L1288.88 3513.73L1276.68 3520.07Z" fill="#3D3D3D"/>
<path d="M1228.84 3507.01L1238.84 3526.79L1244.13 3524.04L1241.04 3500.71L1228.84 3507.01Z" fill="#3D3D3D"/>
<path d="M1252.76 3533.09L1262.76 3552.87L1268.05 3550.12L1264.96 3526.79L1252.76 3533.09Z" fill="#3D3D3D"/>
<path d="M1273.82 3552.31L1283.79 3572.09L1289.08 3569.34L1286.02 3546.01L1273.82 3552.31Z" fill="#3D3D3D"/>
<path d="M1206.36 3525.53L1216.33 3545.28L1221.65 3542.53L1218.56 3519.2L1206.36 3525.53Z" fill="#3D3D3D"/>
<path d="M1231.17 3552.31L1241.17 3572.09L1246.47 3569.34L1243.37 3546.01L1231.17 3552.31Z" fill="#3D3D3D"/>
<path d="M1255.68 3572.05L1265.64 3591.8L1270.97 3589.05L1267.88 3565.72L1255.68 3572.05Z" fill="#3D3D3D"/>
</g>
</g>
<defs>
<clipPath id="clip0_301_248">
<rect width="1440" height="3848" fill="white"/>
</clipPath>
<clipPath id="clip1_301_248">
<rect width="163" height="177" fill="white" transform="translate(1143 869)"/>
</clipPath>
<clipPath id="clip2_301_248">
<rect width="177.763" height="258.744" fill="white" transform="translate(78.9678 649) rotate(15)"/>
</clipPath>
<clipPath id="clip3_301_248">
<rect width="153" height="170" fill="white" transform="translate(34 1290)"/>
</clipPath>
<clipPath id="clip4_301_248">
<rect width="118.312" height="108.42" fill="white" transform="translate(1235 1718)"/>
</clipPath>
<clipPath id="clip5_301_248">
<rect width="173" height="268" fill="white" transform="translate(1176 2352)"/>
</clipPath>
<clipPath id="clip6_301_248">
<rect width="151" height="183" fill="white" transform="translate(131 2013)"/>
</clipPath>
<clipPath id="clip7_301_248">
<rect width="379" height="223" fill="white" transform="translate(-173 2919)"/>
</clipPath>
<clipPath id="clip8_301_248">
<rect width="175" height="284" fill="white" transform="translate(1149 3350)"/>
</clipPath>
</defs>
</svg>
