<svg width="30" height="29" viewBox="0 0 30 29" fill="none" xmlns="http://www.w3.org/2000/svg">
<path d="M25.5339 8.61271C24.3964 5.66309 21.5143 4.26134 18.3477 5.19178C17.746 5.36831 17.5158 5.09392 17.1724 4.76861C15.56 3.24162 13.6634 2.71988 11.5254 3.34377C9.38752 3.96766 8.04851 5.42728 7.56315 7.59375C7.42035 8.22739 7.12269 8.43506 6.54682 8.59988C4.13166 9.2853 2.46133 11.4646 2.39429 13.9263C2.32548 16.4324 3.81652 18.6957 6.22236 19.4653C7.20979 19.7818 8.30148 19.7793 9.51308 19.945C9.81134 20.974 10.1616 22.1825 10.5265 23.4412C14.8162 22.1978 18.9417 21.0019 23.1677 19.777C22.7939 18.4874 22.4436 17.2789 22.1 16.0935C22.271 15.9832 22.3517 15.9222 22.4393 15.8779C25.356 14.4173 26.6254 11.4396 25.5339 8.61271Z" fill="#FE8A1B"/>
<path d="M11.5311 26.7556C15.7647 25.5284 19.8826 24.3348 24.0391 23.13C23.8007 22.3076 23.5819 21.5527 23.3547 20.7689C19.1557 21.986 15.0147 23.1864 10.8467 24.3945C11.0823 25.2073 11.2932 25.9351 11.5311 26.7556Z" fill="#FE8A1B"/>
</svg>
