<svg width="217" height="45" viewBox="0 0 217 45" fill="none" xmlns="http://www.w3.org/2000/svg">
<path d="M37.8624 12.7711C36.1757 8.39731 31.9021 6.31876 27.2066 7.69844C26.3143 7.96019 25.9729 7.55332 25.4638 7.07095C23.0728 4.80667 20.2604 4.03303 17.0903 4.95815C13.9201 5.88328 11.9346 8.04764 11.2149 11.2602C11.0031 12.1997 10.5617 12.5077 9.70783 12.7521C6.12655 13.7684 3.64974 17 3.55032 20.6502C3.44829 24.3664 5.65926 27.7224 9.2267 28.8637C10.6909 29.333 12.3097 29.3292 14.1063 29.5749C14.5486 31.1007 15.068 32.8928 15.609 34.7592C21.9699 32.9155 28.0874 31.1422 34.3538 29.3258C33.7995 27.4135 33.28 25.6215 32.7705 23.8638C33.0242 23.7003 33.1438 23.6098 33.2737 23.5442C37.5986 21.3782 39.4809 16.9629 37.8624 12.7711Z" fill="#FE8A1B"/>
<path d="M17.0991 39.6743C23.3769 37.8545 29.483 36.0846 35.6463 34.2981C35.2928 33.0786 34.9683 31.9593 34.6315 30.797C28.4052 32.6018 22.2647 34.3817 16.0842 36.1732C16.4336 37.3784 16.7464 38.4576 17.0991 39.6743Z" fill="#FE8A1B"/>
<path d="M67.1851 17.4227H58.4732V21.4405H65.8326V26.6915H58.4732V30.7093H67.1851V36.0001H52.3868V12.1319H67.1851V17.4227ZM85.3498 36.0001L84.0371 31.8232H75.6832L74.3704 36.0001H67.8067L76.439 12.1319H83.2415L91.8738 36.0001H85.3498ZM77.2346 26.8904H82.5254L79.8601 18.457L77.2346 26.8904ZM107.972 12.1319V17.4227H102.125V36.0001H96.0781V17.4227H90.2304V12.1319H107.972ZM110.006 36.0001V12.1319H116.093V36.0001H110.006ZM137.768 12.1319H143.854V36.0001H137.45L126.709 21.3609V36.0001H120.623V12.1319H126.987L137.768 26.7313V12.1319ZM159.597 22.7533H171.89V24.066C171.89 30.8287 166.4 36.3184 159.637 36.3184C152.835 36.3184 147.385 30.8287 147.385 24.066C147.385 17.3034 152.835 11.8137 159.637 11.8137C164.371 11.8137 168.508 14.5187 170.537 18.4968L165.286 21.162C164.252 19.0935 162.183 17.7807 159.637 17.7807C156.017 17.7807 153.312 20.446 153.312 24.066C153.312 27.686 156.017 30.3513 159.637 30.3513C161.984 30.3513 163.933 29.1977 165.047 27.4076H159.597V22.7533Z" fill="#5E9732"/>
<path d="M180.332 12.7367C182.295 12.7367 184.006 14.4224 184.006 16.6112V23.0016H181.641V16.8628C181.641 15.7809 180.81 14.9507 179.703 14.9507C178.596 14.9507 177.741 15.7809 177.741 16.8628V23.0016H175.351V12.938H177.741V13.894C178.42 13.1644 179.326 12.7367 180.332 12.7367ZM198.114 21.0392H198.667V23.0016C198.441 23.1274 198.164 23.2029 197.862 23.2029C196.629 23.2029 195.648 22.5236 195.145 21.5172C194.289 22.5487 193.006 23.2029 191.547 23.2029C188.704 23.2029 186.44 20.8882 186.44 17.9698C186.44 15.0513 188.704 12.7367 191.547 12.7367C192.83 12.7367 193.937 13.2147 194.793 13.9947V12.938H197.183V19.907C197.183 20.7876 197.636 21.0392 198.114 21.0392ZM191.849 20.9889C193.509 20.9889 194.868 19.6554 194.868 17.9698C194.868 16.2841 193.509 14.9507 191.849 14.9507C190.163 14.9507 188.83 16.2841 188.83 17.9698C188.83 19.6554 190.163 20.9889 191.849 20.9889ZM211.43 12.7367C213.568 12.7367 215.053 14.3972 215.053 16.6112V23.0016H212.663V16.8628C212.663 15.8061 211.883 14.9507 210.851 14.9507C209.769 14.9507 209.065 15.8816 209.065 16.8628V23.0016H206.675V16.8628C206.675 15.8061 205.895 14.9507 204.863 14.9507C203.781 14.9507 203.077 15.8816 203.077 16.8628V23.0016H200.687V12.938H203.077V13.9695C203.706 13.2147 204.561 12.7367 205.568 12.7367C206.7 12.7367 207.731 13.3657 208.386 14.3217C209.04 13.3405 210.121 12.7367 211.43 12.7367ZM180.332 25.7367C182.295 25.7367 184.006 27.4224 184.006 29.6112V36.0016H181.641V29.8628C181.641 28.7809 180.81 27.9507 179.703 27.9507C178.596 27.9507 177.741 28.7809 177.741 29.8628V36.0016H175.351V25.938H177.741V26.894C178.42 26.1644 179.326 25.7367 180.332 25.7367ZM198.114 34.0392H198.667V36.0016C198.441 36.1274 198.164 36.2029 197.862 36.2029C196.629 36.2029 195.648 35.5236 195.145 34.5172C194.289 35.5487 193.006 36.2029 191.547 36.2029C188.704 36.2029 186.44 33.8882 186.44 30.9698C186.44 28.0513 188.704 25.7367 191.547 25.7367C192.83 25.7367 193.937 26.2147 194.793 26.9947V25.938H197.183V32.907C197.183 33.7876 197.636 34.0392 198.114 34.0392ZM191.849 33.9889C193.509 33.9889 194.868 32.6554 194.868 30.9698C194.868 29.2841 193.509 27.9507 191.849 27.9507C190.163 27.9507 188.83 29.2841 188.83 30.9698C188.83 32.6554 190.163 33.9889 191.849 33.9889ZM211.43 25.7367C213.568 25.7367 215.053 27.3972 215.053 29.6112V36.0016H212.663V29.8628C212.663 28.8061 211.883 27.9507 210.851 27.9507C209.769 27.9507 209.065 28.8816 209.065 29.8628V36.0016H206.675V29.8628C206.675 28.8061 205.895 27.9507 204.863 27.9507C203.781 27.9507 203.077 28.8816 203.077 29.8628V36.0016H200.687V25.938H203.077V26.9695C203.706 26.2147 204.561 25.7367 205.568 25.7367C206.7 25.7367 207.731 26.3657 208.386 27.3217C209.04 26.3405 210.121 25.7367 211.43 25.7367Z" fill="#FE8A1B"/>
</svg>
