<svg width="75" height="58" viewBox="0 0 75 58" fill="none" xmlns="http://www.w3.org/2000/svg">
<path d="M9.44807 32.5108H4.65843V34.7197H8.70448V37.6067H4.65843V39.8156H9.44807V42.7244H1.31223V29.602H9.44807V32.5108ZM19.4347 42.7244L18.713 40.428H14.1202L13.3984 42.7244H9.7898L14.5357 29.602H18.2756L23.0215 42.7244H19.4347ZM14.9731 37.716H17.8819L16.4166 33.0795L14.9731 37.716ZM31.8722 29.602V32.5108H28.6572V42.7244H25.3329V32.5108H22.118V29.602H31.8722ZM32.9903 42.7244V29.602H36.3365V42.7244H32.9903ZM48.2533 29.602H51.5994V42.7244H48.0783L42.1732 34.676V42.7244H38.827V29.602H42.3263L48.2533 37.6285V29.602ZM60.2547 35.4415H67.0127V36.1632C67.0127 39.8812 63.9946 42.8993 60.2766 42.8993C56.5367 42.8993 53.5405 39.8812 53.5405 36.1632C53.5405 32.4452 56.5367 29.4271 60.2766 29.4271C62.8792 29.4271 65.1537 30.9143 66.2691 33.1013L63.3822 34.5667C62.8136 33.4294 61.6763 32.7077 60.2766 32.7077C58.2864 32.7077 56.7992 34.173 56.7992 36.1632C56.7992 38.1534 58.2864 39.6187 60.2766 39.6187C61.5669 39.6187 62.6386 38.9845 63.251 38.0003H60.2547V35.4415Z" fill="#5E9732"/>
<path d="M4.85919 45.1959C6.29486 45.1959 7.54647 46.4291 7.54647 48.0304V52.7056H5.8163V48.2145C5.8163 47.423 5.2089 46.8156 4.39904 46.8156C3.58917 46.8156 2.96337 47.423 2.96337 48.2145V52.7056H1.2148V45.3432H2.96337V46.0426C3.46033 45.5088 4.12295 45.1959 4.85919 45.1959ZM17.8676 51.2699H18.2726V52.7056C18.1069 52.7976 17.9045 52.8528 17.6836 52.8528C16.7817 52.8528 16.0638 52.3559 15.6957 51.6196C15.0699 52.3743 14.1312 52.8528 13.0637 52.8528C10.9838 52.8528 9.32725 51.1595 9.32725 49.0244C9.32725 46.8893 10.9838 45.1959 13.0637 45.1959C14.0024 45.1959 14.8122 45.5456 15.438 46.1162V45.3432H17.1866V50.4416C17.1866 51.0858 17.5179 51.2699 17.8676 51.2699ZM13.2845 51.2331C14.4993 51.2331 15.4933 50.2576 15.4933 49.0244C15.4933 47.7912 14.4993 46.8156 13.2845 46.8156C12.0513 46.8156 11.0758 47.7912 11.0758 49.0244C11.0758 50.2576 12.0513 51.2331 13.2845 51.2331ZM27.6096 45.1959C29.1741 45.1959 30.2601 46.4107 30.2601 48.0304V52.7056H28.5115V48.2145C28.5115 47.4414 27.9409 46.8156 27.1863 46.8156C26.3948 46.8156 25.8794 47.4967 25.8794 48.2145V52.7056H24.1309V48.2145C24.1309 47.4414 23.5603 46.8156 22.8056 46.8156C22.0142 46.8156 21.4988 47.4967 21.4988 48.2145V52.7056H19.7502V45.3432H21.4988V46.0978C21.9589 45.5456 22.5848 45.1959 23.321 45.1959C24.1493 45.1959 24.9039 45.6561 25.3825 46.3555C25.861 45.6377 26.6525 45.1959 27.6096 45.1959ZM40.6215 45.1959C42.0572 45.1959 43.3088 46.4291 43.3088 48.0304V52.7056H41.5786V48.2145C41.5786 47.423 40.9712 46.8156 40.1613 46.8156C39.3515 46.8156 38.7257 47.423 38.7257 48.2145V52.7056H36.9771V45.3432H38.7257V46.0426C39.2226 45.5088 39.8853 45.1959 40.6215 45.1959ZM53.6299 51.2699H54.0349V52.7056C53.8692 52.7976 53.6668 52.8528 53.4459 52.8528C52.544 52.8528 51.8262 52.3559 51.458 51.6196C50.8322 52.3743 49.8935 52.8528 48.826 52.8528C46.7461 52.8528 45.0896 51.1595 45.0896 49.0244C45.0896 46.8893 46.7461 45.1959 48.826 45.1959C49.7647 45.1959 50.5745 45.5456 51.2004 46.1162V45.3432H52.9489V50.4416C52.9489 51.0858 53.2802 51.2699 53.6299 51.2699ZM49.0469 51.2331C50.2616 51.2331 51.2556 50.2576 51.2556 49.0244C51.2556 47.7912 50.2616 46.8156 49.0469 46.8156C47.8136 46.8156 46.8381 47.7912 46.8381 49.0244C46.8381 50.2576 47.8136 51.2331 49.0469 51.2331ZM63.3719 45.1959C64.9364 45.1959 66.0224 46.4107 66.0224 48.0304V52.7056H64.2738V48.2145C64.2738 47.4414 63.7032 46.8156 62.9486 46.8156C62.1571 46.8156 61.6417 47.4967 61.6417 48.2145V52.7056H59.8932V48.2145C59.8932 47.4414 59.3226 46.8156 58.5679 46.8156C57.7765 46.8156 57.2611 47.4967 57.2611 48.2145V52.7056H55.5125V45.3432H57.2611V46.0978C57.7213 45.5456 58.3471 45.1959 59.0833 45.1959C59.9116 45.1959 60.6662 45.6561 61.1448 46.3555C61.6233 45.6377 62.4148 45.1959 63.3719 45.1959Z" fill="#FE8A1B"/>
<path d="M44.3106 8.14209C43.2353 5.35369 40.5108 4.02856 37.5173 4.90814C36.9484 5.07502 36.7308 4.81563 36.4062 4.5081C34.8819 3.06456 33.0889 2.57134 31.0679 3.16114C29.0468 3.75093 27.781 5.13077 27.3221 7.17883C27.1871 7.77783 26.9057 7.97415 26.3614 8.12997C24.0782 8.77792 22.4992 10.8381 22.4358 13.1652C22.3707 15.5344 23.7803 17.6739 26.0546 18.4015C26.9881 18.7007 28.0201 18.6983 29.1655 18.855C29.4475 19.8277 29.7786 20.9702 30.1235 22.1601C34.1787 20.9847 38.0788 19.8542 42.0738 18.6962C41.7204 17.477 41.3893 16.3346 41.0644 15.214C41.2261 15.1098 41.3024 15.0521 41.3852 15.0102C44.1424 13.6294 45.3425 10.8145 44.3106 8.14209Z" fill="#FE8A1B"/>
<path d="M31.0732 25.2933C35.0755 24.1332 38.9683 23.0048 42.8976 21.8658C42.6722 21.0884 42.4654 20.3748 42.2506 19.6338C38.2812 20.7844 34.3665 21.9191 30.4263 23.0613C30.649 23.8296 30.8484 24.5176 31.0732 25.2933Z" fill="#FE8A1B"/>
</svg>
